# Blender v2.77 (sub 0) OBJ File: ''
# www.blender.org
mtllib cone.mtl
o Cone
v 0.000000 -50.000000 -100.000000
v 19.509033 -50.000000 -98.078522
v 38.268345 -50.000000 -92.387947
v 55.557026 -50.000000 -83.146957
v 70.710678 -50.000000 -70.710678
v 83.146965 -50.000000 -55.557018
v 92.387947 -50.000000 -38.268341
v 98.078522 -50.000000 -19.509035
v 100.000000 -50.000000 -0.000008
v 98.078529 -50.000000 19.509020
v 92.387955 -50.000000 38.268326
v 83.146965 -50.000000 55.557018
v 0.000000 50.000000 0.000000
v 70.710678 -50.000000 70.710678
v 55.557018 -50.000000 83.146965
v 38.268326 -50.000000 92.387962
v 19.509008 -50.000000 98.078529
v -0.000033 -50.000000 100.000000
v -19.509073 -50.000000 98.078522
v -38.268387 -50.000000 92.387932
v -55.557072 -50.000000 83.146927
v -70.710724 -50.000000 70.710632
v -83.147003 -50.000000 55.556965
v -92.387985 -50.000000 38.268269
v -98.078545 -50.000000 19.508945
v -100.000000 -50.000000 -0.000097
v -98.078506 -50.000000 -19.509134
v -92.387909 -50.000000 -38.268448
v -83.146896 -50.000000 -55.557125
v -70.710587 -50.000000 -70.710770
v -55.556911 -50.000000 -83.147034
v -38.268208 -50.000000 -92.388008
v -19.508883 -50.000000 -98.078552
vn 0.0695 0.7054 -0.7054
vn 0.2058 0.7054 -0.6783
vn 0.3341 0.7054 -0.6251
vn 0.4497 0.7054 -0.5479
vn 0.5479 0.7054 -0.4497
vn 0.6251 0.7054 -0.3341
vn 0.6783 0.7054 -0.2058
vn 0.7054 0.7054 -0.0695
vn 0.7054 0.7054 0.0695
vn 0.6783 0.7054 0.2058
vn 0.6251 0.7054 0.3341
vn 0.5479 0.7054 0.4497
vn 0.4497 0.7054 0.5479
vn 0.3341 0.7054 0.6251
vn 0.2058 0.7054 0.6783
vn 0.0695 0.7054 0.7054
vn -0.0695 0.7054 0.7054
vn -0.2058 0.7054 0.6783
vn -0.3341 0.7054 0.6251
vn -0.4497 0.7054 0.5479
vn -0.5479 0.7054 0.4497
vn -0.6251 0.7054 0.3341
vn -0.6783 0.7054 0.2058
vn -0.7054 0.7054 0.0695
vn -0.7054 0.7054 -0.0695
vn -0.6783 0.7054 -0.2058
vn -0.6251 0.7054 -0.3341
vn -0.5479 0.7054 -0.4497
vn -0.4497 0.7054 -0.5479
vn -0.3341 0.7054 -0.6251
vn -0.2058 0.7054 -0.6783
vn -0.0695 0.7054 -0.7054
vn 0.0000 -1.0000 -0.0000
usemtl None
s off
f 1//1 13//1 2//1
f 2//2 13//2 3//2
f 3//3 13//3 4//3
f 4//4 13//4 5//4
f 5//5 13//5 6//5
f 6//6 13//6 7//6
f 7//7 13//7 8//7
f 8//8 13//8 9//8
f 9//9 13//9 10//9
f 10//10 13//10 11//10
f 11//11 13//11 12//11
f 12//12 13//12 14//12
f 14//13 13//13 15//13
f 15//14 13//14 16//14
f 16//15 13//15 17//15
f 17//16 13//16 18//16
f 18//17 13//17 19//17
f 19//18 13//18 20//18
f 20//19 13//19 21//19
f 21//20 13//20 22//20
f 22//21 13//21 23//21
f 23//22 13//22 24//22
f 24//23 13//23 25//23
f 25//24 13//24 26//24
f 26//25 13//25 27//25
f 27//26 13//26 28//26
f 28//27 13//27 29//27
f 29//28 13//28 30//28
f 30//29 13//29 31//29
f 31//30 13//30 32//30
f 32//31 13//31 33//31
f 33//32 13//32 1//32
f 1//33 2//33 3//33 4//33 5//33 6//33 7//33 8//33 9//33 10//33 11//33 12//33 14//33 15//33 16//33 17//33 18//33 19//33 20//33 21//33 22//33 23//33 24//33 25//33 26//33 27//33 28//33 29//33 30//33 31//33 32//33 33//33
