# Blender v2.77 (sub 0) OBJ File: ''
# www.blender.org
mtllib sphere.mtl
o Sphere
v -0.195090 0.980785 0.000000
v -0.382683 0.923880 0.000000
v -0.555570 0.831470 0.000000
v -0.707107 0.707107 0.000000
v -0.831470 0.555570 0.000000
v -0.923880 0.382683 0.000000
v -0.980785 0.195090 0.000000
v -1.000000 0.000000 0.000000
v -0.980785 -0.195090 0.000000
v -0.923880 -0.382683 0.000000
v -0.831470 -0.555570 0.000000
v -0.707107 -0.707107 0.000000
v -0.555570 -0.831470 0.000000
v -0.382683 -0.923880 0.000000
v -0.195090 -0.980785 0.000000
v -0.180240 0.980785 -0.074658
v -0.353553 0.923880 -0.146447
v -0.513280 0.831470 -0.212608
v -0.653281 0.707107 -0.270598
v -0.768178 0.555570 -0.318190
v -0.853553 0.382683 -0.353554
v -0.906127 0.195090 -0.375330
v -0.923880 0.000000 -0.382684
v -0.906127 -0.195090 -0.375330
v -0.853553 -0.382683 -0.353554
v -0.768178 -0.555570 -0.318190
v -0.653281 -0.707107 -0.270598
v -0.513280 -0.831470 -0.212608
v -0.353553 -0.923880 -0.146447
v -0.180240 -0.980785 -0.074658
v -0.137950 0.980785 -0.137950
v -0.270598 0.923880 -0.270598
v -0.392847 0.831470 -0.392848
v -0.500000 0.707107 -0.500000
v -0.587938 0.555570 -0.587938
v -0.653281 0.382683 -0.653282
v -0.693520 0.195090 -0.693520
v -0.707107 0.000000 -0.707107
v -0.693520 -0.195090 -0.693520
v -0.653281 -0.382683 -0.653282
v -0.587938 -0.555570 -0.587938
v -0.500000 -0.707107 -0.500000
v -0.392847 -0.831470 -0.392848
v -0.270598 -0.923880 -0.270598
v -0.137949 -0.980785 -0.137950
v 0.000000 -1.000000 0.000000
v -0.074658 0.980785 -0.180240
v -0.146446 0.923880 -0.353554
v -0.212607 0.831470 -0.513280
v -0.270598 0.707107 -0.653282
v -0.318189 0.555570 -0.768178
v -0.353553 0.382683 -0.853554
v -0.375330 0.195090 -0.906128
v -0.382683 0.000000 -0.923880
v -0.375330 -0.195090 -0.906128
v -0.353553 -0.382683 -0.853554
v -0.318189 -0.555570 -0.768178
v -0.270598 -0.707107 -0.653282
v -0.212607 -0.831470 -0.513280
v -0.146446 -0.923880 -0.353554
v -0.074658 -0.980785 -0.180240
v 0.000000 0.980785 -0.195091
v 0.000000 0.923880 -0.382684
v 0.000000 0.831470 -0.555571
v 0.000000 0.707107 -0.707107
v 0.000000 0.555570 -0.831470
v 0.000000 0.382683 -0.923880
v 0.000000 0.195090 -0.980786
v 0.000000 0.000000 -1.000000
v 0.000000 -0.195090 -0.980786
v 0.000000 -0.382683 -0.923880
v 0.000000 -0.555570 -0.831470
v 0.000000 -0.707107 -0.707107
v 0.000000 -0.831470 -0.555570
v 0.000000 -0.923880 -0.382684
v 0.000000 -0.980785 -0.195090
v 0.074658 0.980785 -0.180240
v 0.146447 0.923880 -0.353554
v 0.212608 0.831470 -0.513280
v 0.270599 0.707107 -0.653282
v 0.318190 0.555570 -0.768178
v 0.353554 0.382683 -0.853553
v 0.375331 0.195090 -0.906128
v 0.382684 0.000000 -0.923880
v 0.375331 -0.195090 -0.906128
v 0.353554 -0.382683 -0.853554
v 0.318190 -0.555570 -0.768178
v 0.270599 -0.707107 -0.653282
v 0.212608 -0.831470 -0.513280
v 0.146447 -0.923880 -0.353554
v 0.074658 -0.980785 -0.180240
v 0.137950 0.980785 -0.137950
v 0.270599 0.923880 -0.270598
v 0.392848 0.831470 -0.392848
v 0.500001 0.707107 -0.500000
v 0.587938 0.555570 -0.587938
v 0.653282 0.382683 -0.653281
v 0.693521 0.195090 -0.693520
v 0.707107 0.000000 -0.707107
v 0.693521 -0.195090 -0.693520
v 0.653282 -0.382683 -0.653282
v 0.587938 -0.555570 -0.587938
v 0.500001 -0.707107 -0.500000
v 0.392848 -0.831470 -0.392848
v 0.270599 -0.923880 -0.270598
v 0.137950 -0.980785 -0.137950
v 0.180241 0.980785 -0.074658
v 0.353554 0.923880 -0.146447
v 0.513281 0.831470 -0.212608
v 0.653282 0.707107 -0.270598
v 0.768178 0.555570 -0.318190
v 0.853554 0.382683 -0.353553
v 0.906128 0.195090 -0.375330
v 0.923880 0.000000 -0.382683
v 0.906128 -0.195090 -0.375330
v 0.853554 -0.382683 -0.353553
v 0.768178 -0.555570 -0.318190
v 0.653282 -0.707107 -0.270598
v 0.513281 -0.831470 -0.212607
v 0.353554 -0.923880 -0.146447
v 0.180240 -0.980785 -0.074658
v 0.195091 0.980785 0.000000
v 0.382684 0.923880 0.000000
v 0.555571 0.831470 0.000000
v 0.707107 0.707107 0.000000
v 0.831470 0.555570 0.000000
v 0.923880 0.382683 0.000000
v 0.980786 0.195090 0.000000
v 1.000000 0.000000 0.000000
v 0.980786 -0.195090 0.000000
v 0.923880 -0.382683 0.000000
v 0.831470 -0.555570 0.000000
v 0.707107 -0.707107 0.000000
v 0.555571 -0.831470 0.000000
v 0.382684 -0.923880 0.000000
v 0.195091 -0.980785 0.000000
v 0.180241 0.980785 0.074658
v 0.353554 0.923880 0.146447
v 0.513280 0.831470 0.212608
v 0.653282 0.707107 0.270598
v 0.768178 0.555570 0.318190
v 0.853554 0.382683 0.353554
v 0.906128 0.195090 0.375331
v 0.923880 0.000000 0.382684
v 0.906128 -0.195090 0.375331
v 0.853554 -0.382683 0.353554
v 0.768178 -0.555570 0.318190
v 0.653282 -0.707107 0.270598
v 0.513280 -0.831470 0.212608
v 0.353554 -0.923880 0.146447
v 0.180240 -0.980785 0.074658
v 0.137950 0.980785 0.137950
v 0.270598 0.923880 0.270598
v 0.392848 0.831470 0.392848
v 0.500000 0.707107 0.500000
v 0.587938 0.555570 0.587938
v 0.653282 0.382683 0.653282
v 0.693520 0.195090 0.693520
v 0.707107 0.000000 0.707107
v 0.693520 -0.195090 0.693520
v 0.653282 -0.382683 0.653282
v 0.587938 -0.555570 0.587938
v 0.500000 -0.707107 0.500000
v 0.392848 -0.831470 0.392848
v 0.270598 -0.923880 0.270598
v 0.137950 -0.980785 0.137950
v 0.074658 0.980785 0.180240
v 0.146447 0.923880 0.353554
v 0.212608 0.831470 0.513280
v 0.270598 0.707107 0.653282
v 0.318190 0.555570 0.768178
v 0.353553 0.382683 0.853554
v 0.375330 0.195090 0.906128
v 0.382683 0.000000 0.923880
v 0.375330 -0.195090 0.906128
v 0.353553 -0.382683 0.853554
v 0.318190 -0.555570 0.768178
v 0.270598 -0.707107 0.653282
v 0.212608 -0.831470 0.513280
v 0.146447 -0.923880 0.353554
v 0.074658 -0.980785 0.180240
v 0.000000 0.980785 0.195091
v 0.000000 0.923880 0.382684
v 0.000000 0.831470 0.555570
v -0.000000 0.707107 0.707107
v 0.000000 0.555570 0.831470
v -0.000000 0.382683 0.923880
v -0.000000 0.195090 0.980785
v -0.000000 0.000000 1.000000
v -0.000000 -0.195090 0.980785
v -0.000000 -0.382683 0.923880
v 0.000000 -0.555570 0.831470
v -0.000000 -0.707107 0.707107
v 0.000000 -0.831470 0.555570
v 0.000000 -0.923880 0.382684
v 0.000000 -0.980785 0.195090
v -0.074658 0.980785 0.180240
v -0.146447 0.923880 0.353554
v -0.212608 0.831470 0.513280
v -0.270598 0.707107 0.653282
v -0.318190 0.555570 0.768178
v -0.353553 0.382683 0.853553
v -0.375330 0.195090 0.906127
v -0.382684 0.000000 0.923879
v -0.375330 -0.195090 0.906127
v -0.353554 -0.382683 0.853553
v -0.318190 -0.555570 0.768178
v -0.270598 -0.707107 0.653282
v -0.212608 -0.831470 0.513280
v -0.146446 -0.923880 0.353553
v -0.074658 -0.980785 0.180240
v 0.000000 1.000000 0.000000
v -0.137950 0.980785 0.137950
v -0.270598 0.923880 0.270598
v -0.392848 0.831470 0.392847
v -0.500000 0.707107 0.500000
v -0.587938 0.555570 0.587938
v -0.653281 0.382683 0.653281
v -0.693520 0.195090 0.693520
v -0.707107 0.000000 0.707106
v -0.693520 -0.195090 0.693520
v -0.653282 -0.382683 0.653281
v -0.587938 -0.555570 0.587938
v -0.500000 -0.707107 0.500000
v -0.392848 -0.831470 0.392847
v -0.270598 -0.923880 0.270598
v -0.137949 -0.980785 0.137950
v -0.180240 0.980785 0.074658
v -0.353553 0.923880 0.146446
v -0.513280 0.831470 0.212607
v -0.653282 0.707107 0.270598
v -0.768178 0.555570 0.318189
v -0.853553 0.382683 0.353553
v -0.906127 0.195090 0.375330
v -0.923879 0.000000 0.382683
v -0.906127 -0.195090 0.375330
v -0.853553 -0.382683 0.353553
v -0.768178 -0.555570 0.318189
v -0.653282 -0.707107 0.270598
v -0.513280 -0.831470 0.212607
v -0.353553 -0.923880 0.146446
v -0.180240 -0.980785 0.074658
vn -0.0980 0.9950 -0.0195
vn -0.9401 0.2852 -0.1870
vn -0.7640 -0.6270 -0.1520
vn -0.8687 0.4643 -0.1728
vn -0.7640 0.6270 -0.1520
vn -0.8687 -0.4643 -0.1728
vn -0.0980 -0.9950 -0.0195
vn -0.6294 0.7669 -0.1252
vn -0.9401 -0.2852 -0.1870
vn -0.9762 -0.0962 -0.1942
vn -0.2898 -0.9553 -0.0576
vn -0.4693 0.8781 -0.0934
vn -0.9762 0.0962 -0.1942
vn -0.4693 -0.8781 -0.0934
vn -0.6294 -0.7669 -0.1252
vn -0.2898 0.9553 -0.0576
vn -0.8276 0.0962 -0.5530
vn -0.3979 -0.8781 -0.2659
vn -0.5336 -0.7669 -0.3565
vn -0.2457 0.9553 -0.1642
vn -0.0831 0.9950 -0.0555
vn -0.7969 0.2852 -0.5325
vn -0.6477 -0.6270 -0.4328
vn -0.7364 0.4643 -0.4921
vn -0.6477 0.6270 -0.4328
vn -0.7364 -0.4643 -0.4921
vn -0.0831 -0.9950 -0.0555
vn -0.5336 0.7669 -0.3565
vn -0.7969 -0.2852 -0.5325
vn -0.8276 -0.0962 -0.5530
vn -0.2457 -0.9553 -0.1642
vn -0.3979 0.8781 -0.2659
vn -0.1642 -0.9553 -0.2457
vn -0.2659 0.8781 -0.3979
vn -0.5530 -0.0962 -0.8276
vn -0.5530 0.0962 -0.8276
vn -0.2659 -0.8781 -0.3979
vn -0.1642 0.9553 -0.2457
vn -0.5325 0.2852 -0.7969
vn -0.3565 -0.7669 -0.5336
vn -0.4328 -0.6270 -0.6477
vn -0.0555 0.9950 -0.0831
vn -0.4921 0.4643 -0.7364
vn -0.4921 -0.4643 -0.7364
vn -0.0555 -0.9950 -0.0831
vn -0.4328 0.6270 -0.6477
vn -0.3565 0.7669 -0.5336
vn -0.5325 -0.2852 -0.7969
vn -0.1520 0.6270 -0.7640
vn -0.1870 -0.2852 -0.9401
vn -0.0195 -0.9950 -0.0980
vn -0.0576 -0.9553 -0.2898
vn -0.1252 0.7669 -0.6294
vn -0.0934 0.8781 -0.4693
vn -0.1942 -0.0962 -0.9762
vn -0.0934 -0.8781 -0.4693
vn -0.0576 0.9553 -0.2898
vn -0.1942 0.0962 -0.9762
vn -0.1870 0.2852 -0.9401
vn -0.1252 -0.7669 -0.6294
vn -0.0195 0.9950 -0.0980
vn -0.1728 0.4643 -0.8687
vn -0.1520 -0.6270 -0.7640
vn -0.1728 -0.4643 -0.8687
vn 0.1520 0.6270 -0.7640
vn 0.1728 -0.4643 -0.8687
vn 0.1870 -0.2852 -0.9401
vn 0.0195 -0.9950 -0.0980
vn 0.1252 0.7669 -0.6294
vn 0.1942 -0.0962 -0.9762
vn 0.0576 -0.9553 -0.2898
vn 0.0934 -0.8781 -0.4693
vn 0.0934 0.8781 -0.4693
vn 0.0576 0.9553 -0.2898
vn 0.1942 0.0962 -0.9762
vn 0.1252 -0.7669 -0.6294
vn 0.0195 0.9950 -0.0980
vn 0.1870 0.2852 -0.9401
vn 0.1728 0.4643 -0.8687
vn 0.1520 -0.6270 -0.7640
vn 0.0555 0.9950 -0.0831
vn 0.5325 0.2852 -0.7969
vn 0.4328 -0.6270 -0.6477
vn 0.4921 0.4643 -0.7364
vn 0.4328 0.6270 -0.6477
vn 0.4921 -0.4643 -0.7364
vn 0.0555 -0.9950 -0.0831
vn 0.3565 0.7669 -0.5336
vn 0.5325 -0.2852 -0.7969
vn 0.5530 -0.0962 -0.8276
vn 0.1642 -0.9553 -0.2457
vn 0.2659 0.8781 -0.3979
vn 0.5530 0.0962 -0.8276
vn 0.2659 -0.8781 -0.3979
vn 0.3565 -0.7669 -0.5336
vn 0.1642 0.9553 -0.2457
vn 0.8276 0.0962 -0.5530
vn 0.3979 -0.8781 -0.2659
vn 0.2457 0.9553 -0.1642
vn 0.7969 0.2852 -0.5325
vn 0.5336 -0.7669 -0.3565
vn 0.6477 -0.6270 -0.4328
vn 0.0831 0.9950 -0.0555
vn 0.7364 0.4643 -0.4921
vn 0.7364 -0.4643 -0.4921
vn 0.0831 -0.9950 -0.0555
vn 0.6477 0.6270 -0.4328
vn 0.5336 0.7669 -0.3565
vn 0.7969 -0.2852 -0.5325
vn 0.2457 -0.9553 -0.1642
vn 0.3979 0.8781 -0.2659
vn 0.8276 -0.0962 -0.5530
vn 0.6294 0.7669 -0.1252
vn 0.4693 0.8781 -0.0934
vn 0.9762 -0.0962 -0.1942
vn 0.4693 -0.8781 -0.0934
vn 0.2898 0.9553 -0.0576
vn 0.9762 0.0962 -0.1942
vn 0.9401 0.2852 -0.1870
vn 0.6294 -0.7669 -0.1252
vn 0.0980 0.9950 -0.0195
vn 0.8687 0.4643 -0.1728
vn 0.7640 -0.6270 -0.1520
vn 0.8687 -0.4643 -0.1728
vn 0.7640 0.6270 -0.1520
vn 0.9401 -0.2852 -0.1870
vn 0.0980 -0.9950 -0.0195
vn 0.2898 -0.9553 -0.0576
vn 0.8687 -0.4643 0.1728
vn 0.9401 -0.2852 0.1870
vn 0.0980 -0.9950 0.0195
vn 0.6294 0.7669 0.1252
vn 0.9762 -0.0962 0.1942
vn 0.2898 -0.9553 0.0576
vn 0.4693 -0.8781 0.0934
vn 0.4693 0.8781 0.0934
vn 0.2898 0.9553 0.0576
vn 0.9762 0.0962 0.1942
vn 0.6294 -0.7669 0.1252
vn 0.0980 0.9950 0.0195
vn 0.9401 0.2852 0.1870
vn 0.8687 0.4643 0.1728
vn 0.7640 -0.6270 0.1520
vn 0.7640 0.6270 0.1520
vn 0.7364 0.4643 0.4921
vn 0.6477 0.6270 0.4328
vn 0.7364 -0.4643 0.4921
vn 0.0831 -0.9950 0.0555
vn 0.5336 0.7669 0.3565
vn 0.7969 -0.2852 0.5325
vn 0.8276 -0.0962 0.5530
vn 0.2457 -0.9553 0.1642
vn 0.3979 0.8781 0.2659
vn 0.8276 0.0962 0.5530
vn 0.3979 -0.8781 0.2659
vn 0.5336 -0.7669 0.3565
vn 0.2457 0.9553 0.1642
vn 0.0831 0.9950 0.0555
vn 0.7969 0.2852 0.5325
vn 0.6477 -0.6270 0.4328
vn 0.5325 0.2852 0.7969
vn 0.3565 -0.7669 0.5336
vn 0.4328 -0.6270 0.6477
vn 0.0555 0.9950 0.0831
vn 0.4921 0.4643 0.7364
vn 0.4921 -0.4643 0.7364
vn 0.0555 -0.9950 0.0831
vn 0.4328 0.6270 0.6477
vn 0.3565 0.7669 0.5336
vn 0.5325 -0.2852 0.7969
vn 0.1642 -0.9553 0.2457
vn 0.2659 0.8781 0.3979
vn 0.5530 -0.0962 0.8276
vn 0.5530 0.0962 0.8276
vn 0.2659 -0.8781 0.3979
vn 0.1642 0.9553 0.2457
vn 0.0934 -0.8781 0.4693
vn 0.0576 0.9553 0.2898
vn 0.1942 0.0962 0.9762
vn 0.1870 0.2852 0.9401
vn 0.1252 -0.7669 0.6294
vn 0.0195 0.9950 0.0980
vn 0.1728 0.4643 0.8687
vn 0.1520 -0.6270 0.7640
vn 0.1728 -0.4643 0.8687
vn 0.1520 0.6270 0.7640
vn 0.1870 -0.2852 0.9401
vn 0.0195 -0.9950 0.0980
vn 0.0576 -0.9553 0.2898
vn 0.1252 0.7669 0.6294
vn 0.0934 0.8781 0.4693
vn 0.1942 -0.0962 0.9762
vn -0.1252 0.7669 0.6294
vn -0.1942 -0.0962 0.9762
vn -0.0576 -0.9553 0.2898
vn -0.0934 -0.8781 0.4693
vn -0.0934 0.8781 0.4693
vn -0.0576 0.9553 0.2898
vn -0.1942 0.0962 0.9762
vn -0.1252 -0.7669 0.6294
vn -0.0195 0.9950 0.0980
vn -0.1870 0.2852 0.9401
vn -0.1728 0.4643 0.8687
vn -0.1520 -0.6270 0.7640
vn -0.1520 0.6270 0.7640
vn -0.1728 -0.4643 0.8687
vn -0.1870 -0.2852 0.9401
vn -0.0195 -0.9950 0.0980
vn -0.0555 -0.9950 0.0831
vn -0.3565 0.7669 0.5336
vn -0.5325 -0.2852 0.7969
vn -0.5530 -0.0962 0.8276
vn -0.1642 -0.9553 0.2457
vn -0.2659 0.8781 0.3979
vn -0.5530 0.0962 0.8276
vn -0.2659 -0.8781 0.3979
vn -0.3565 -0.7669 0.5336
vn -0.1642 0.9553 0.2457
vn -0.0555 0.9950 0.0831
vn -0.5325 0.2852 0.7969
vn -0.4328 -0.6270 0.6477
vn -0.4921 0.4643 0.7364
vn -0.4328 0.6270 0.6477
vn -0.4921 -0.4643 0.7364
vn -0.7364 0.4643 0.4921
vn -0.7364 -0.4643 0.4921
vn -0.0831 -0.9950 0.0555
vn -0.6477 0.6270 0.4328
vn -0.5336 0.7669 0.3565
vn -0.7969 -0.2852 0.5325
vn -0.2457 -0.9553 0.1642
vn -0.3979 0.8781 0.2659
vn -0.8276 -0.0962 0.5530
vn -0.8276 0.0962 0.5530
vn -0.3979 -0.8781 0.2659
vn -0.2457 0.9553 0.1642
vn -0.7969 0.2852 0.5325
vn -0.5336 -0.7669 0.3565
vn -0.6477 -0.6270 0.4328
vn -0.0831 0.9950 0.0555
vn -0.9401 0.2852 0.1870
vn -0.6294 -0.7669 0.1252
vn -0.0980 0.9950 0.0195
vn -0.8687 0.4643 0.1728
vn -0.7640 -0.6270 0.1520
vn -0.8687 -0.4643 0.1728
vn -0.7640 0.6270 0.1520
vn -0.9401 -0.2852 0.1870
vn -0.0980 -0.9950 0.0195
vn -0.2898 -0.9553 0.0576
vn -0.6294 0.7669 0.1252
vn -0.4693 0.8781 0.0934
vn -0.9762 -0.0962 0.1942
vn -0.4693 -0.8781 0.0934
vn -0.2898 0.9553 0.0576
vn -0.9762 0.0962 0.1942
usemtl None
s off
f 1//1 212//1 16//1
f 7//2 6//2 21//2 22//2
f 12//3 11//3 26//3 27//3
f 6//4 5//4 20//4 21//4
f 5//5 4//5 19//5 20//5
f 11//6 10//6 25//6 26//6
f 46//7 15//7 30//7
f 4//8 3//8 18//8 19//8
f 10//9 9//9 24//9 25//9
f 9//10 8//10 23//10 24//10
f 15//11 14//11 29//11 30//11
f 3//12 2//12 17//12 18//12
f 8//13 7//13 22//13 23//13
f 14//14 13//14 28//14 29//14
f 13//15 12//15 27//15 28//15
f 2//16 1//16 16//16 17//16
f 23//17 22//17 37//17 38//17
f 29//18 28//18 43//18 44//18
f 28//19 27//19 42//19 43//19
f 17//20 16//20 31//20 32//20
f 16//21 212//21 31//21
f 22//22 21//22 36//22 37//22
f 27//23 26//23 41//23 42//23
f 21//24 20//24 35//24 36//24
f 20//25 19//25 34//25 35//25
f 26//26 25//26 40//26 41//26
f 46//27 30//27 45//27
f 19//28 18//28 33//28 34//28
f 25//29 24//29 39//29 40//29
f 24//30 23//30 38//30 39//30
f 30//31 29//31 44//31 45//31
f 18//32 17//32 32//32 33//32
f 45//33 44//33 60//33 61//33
f 33//34 32//34 48//34 49//34
f 39//35 38//35 54//35 55//35
f 38//36 37//36 53//36 54//36
f 44//37 43//37 59//37 60//37
f 32//38 31//38 47//38 48//38
f 37//39 36//39 52//39 53//39
f 43//40 42//40 58//40 59//40
f 42//41 41//41 57//41 58//41
f 31//42 212//42 47//42
f 36//43 35//43 51//43 52//43
f 41//44 40//44 56//44 57//44
f 46//45 45//45 61//45
f 35//46 34//46 50//46 51//46
f 34//47 33//47 49//47 50//47
f 40//48 39//48 55//48 56//48
f 51//49 50//49 65//49 66//49
f 56//50 55//50 70//50 71//50
f 46//51 61//51 76//51
f 61//52 60//52 75//52 76//52
f 50//53 49//53 64//53 65//53
f 49//54 48//54 63//54 64//54
f 55//55 54//55 69//55 70//55
f 60//56 59//56 74//56 75//56
f 48//57 47//57 62//57 63//57
f 54//58 53//58 68//58 69//58
f 53//59 52//59 67//59 68//59
f 59//60 58//60 73//60 74//60
f 47//61 212//61 62//61
f 52//62 51//62 66//62 67//62
f 58//63 57//63 72//63 73//63
f 57//64 56//64 71//64 72//64
f 66//65 65//65 80//65 81//65
f 72//66 71//66 86//66 87//66
f 71//67 70//67 85//67 86//67
f 46//68 76//68 91//68
f 65//69 64//69 79//69 80//69
f 70//70 69//70 84//70 85//70
f 76//71 75//71 90//71 91//71
f 75//72 74//72 89//72 90//72
f 64//73 63//73 78//73 79//73
f 63//74 62//74 77//74 78//74
f 69//75 68//75 83//75 84//75
f 74//76 73//76 88//76 89//76
f 62//77 212//77 77//77
f 68//78 67//78 82//78 83//78
f 67//79 66//79 81//79 82//79
f 73//80 72//80 87//80 88//80
f 77//81 212//81 92//81
f 83//82 82//82 97//82 98//82
f 88//83 87//83 102//83 103//83
f 82//84 81//84 96//84 97//84
f 81//85 80//85 95//85 96//85
f 87//86 86//86 101//86 102//86
f 46//87 91//87 106//87
f 80//88 79//88 94//88 95//88
f 86//89 85//89 100//89 101//89
f 85//90 84//90 99//90 100//90
f 91//91 90//91 105//91 106//91
f 79//92 78//92 93//92 94//92
f 84//93 83//93 98//93 99//93
f 90//94 89//94 104//94 105//94
f 89//95 88//95 103//95 104//95
f 78//96 77//96 92//96 93//96
f 99//97 98//97 113//97 114//97
f 105//98 104//98 119//98 120//98
f 93//99 92//99 107//99 108//99
f 98//100 97//100 112//100 113//100
f 104//101 103//101 118//101 119//101
f 103//102 102//102 117//102 118//102
f 92//103 212//103 107//103
f 97//104 96//104 111//104 112//104
f 102//105 101//105 116//105 117//105
f 46//106 106//106 121//106
f 96//107 95//107 110//107 111//107
f 95//108 94//108 109//108 110//108
f 101//109 100//109 115//109 116//109
f 106//110 105//110 120//110 121//110
f 94//111 93//111 108//111 109//111
f 100//112 99//112 114//112 115//112
f 110//113 109//113 124//113 125//113
f 109//114 108//114 123//114 124//114
f 115//115 114//115 129//115 130//115
f 120//116 119//116 134//116 135//116
f 108//117 107//117 122//117 123//117
f 114//118 113//118 128//118 129//118
f 113//119 112//119 127//119 128//119
f 119//120 118//120 133//120 134//120
f 107//121 212//121 122//121
f 112//122 111//122 126//122 127//122
f 118//123 117//123 132//123 133//123
f 117//124 116//124 131//124 132//124
f 111//125 110//125 125//125 126//125
f 116//126 115//126 130//126 131//126
f 46//127 121//127 136//127
f 121//128 120//128 135//128 136//128
f 132//129 131//129 146//129 147//129
f 131//130 130//130 145//130 146//130
f 46//131 136//131 151//131
f 125//132 124//132 139//132 140//132
f 130//133 129//133 144//133 145//133
f 136//134 135//134 150//134 151//134
f 135//135 134//135 149//135 150//135
f 124//136 123//136 138//136 139//136
f 123//137 122//137 137//137 138//137
f 129//138 128//138 143//138 144//138
f 134//139 133//139 148//139 149//139
f 122//140 212//140 137//140
f 128//141 127//141 142//141 143//141
f 127//142 126//142 141//142 142//142
f 133//143 132//143 147//143 148//143
f 126//144 125//144 140//144 141//144
f 142//145 141//145 156//145 157//145
f 141//146 140//146 155//146 156//146
f 147//147 146//147 161//147 162//147
f 46//148 151//148 166//148
f 140//149 139//149 154//149 155//149
f 146//150 145//150 160//150 161//150
f 145//151 144//151 159//151 160//151
f 151//152 150//152 165//152 166//152
f 139//153 138//153 153//153 154//153
f 144//154 143//154 158//154 159//154
f 150//155 149//155 164//155 165//155
f 149//156 148//156 163//156 164//156
f 138//157 137//157 152//157 153//157
f 137//158 212//158 152//158
f 143//159 142//159 157//159 158//159
f 148//160 147//160 162//160 163//160
f 158//161 157//161 172//161 173//161
f 164//162 163//162 178//162 179//162
f 163//163 162//163 177//163 178//163
f 152//164 212//164 167//164
f 157//165 156//165 171//165 172//165
f 162//166 161//166 176//166 177//166
f 46//167 166//167 181//167
f 156//168 155//168 170//168 171//168
f 155//169 154//169 169//169 170//169
f 161//170 160//170 175//170 176//170
f 166//171 165//171 180//171 181//171
f 154//172 153//172 168//172 169//172
f 160//173 159//173 174//173 175//173
f 159//174 158//174 173//174 174//174
f 165//175 164//175 179//175 180//175
f 153//176 152//176 167//176 168//176
f 180//177 179//177 194//177 195//177
f 168//178 167//178 182//178 183//178
f 174//179 173//179 188//179 189//179
f 173//180 172//180 187//180 188//180
f 179//181 178//181 193//181 194//181
f 167//182 212//182 182//182
f 172//183 171//183 186//183 187//183
f 178//184 177//184 192//184 193//184
f 177//185 176//185 191//185 192//185
f 171//186 170//186 185//186 186//186
f 176//187 175//187 190//187 191//187
f 46//188 181//188 196//188
f 181//189 180//189 195//189 196//189
f 170//190 169//190 184//190 185//190
f 169//191 168//191 183//191 184//191
f 175//192 174//192 189//192 190//192
f 185//193 184//193 199//193 200//193
f 190//194 189//194 204//194 205//194
f 196//195 195//195 210//195 211//195
f 195//196 194//196 209//196 210//196
f 184//197 183//197 198//197 199//197
f 183//198 182//198 197//198 198//198
f 189//199 188//199 203//199 204//199
f 194//200 193//200 208//200 209//200
f 182//201 212//201 197//201
f 188//202 187//202 202//202 203//202
f 187//203 186//203 201//203 202//203
f 193//204 192//204 207//204 208//204
f 186//205 185//205 200//205 201//205
f 192//206 191//206 206//206 207//206
f 191//207 190//207 205//207 206//207
f 46//208 196//208 211//208
f 46//209 211//209 227//209
f 200//210 199//210 215//210 216//210
f 206//211 205//211 221//211 222//211
f 205//212 204//212 220//212 221//212
f 211//213 210//213 226//213 227//213
f 199//214 198//214 214//214 215//214
f 204//215 203//215 219//215 220//215
f 210//216 209//216 225//216 226//216
f 209//217 208//217 224//217 225//217
f 198//218 197//218 213//218 214//218
f 197//219 212//219 213//219
f 203//220 202//220 218//220 219//220
f 208//221 207//221 223//221 224//221
f 202//222 201//222 217//222 218//222
f 201//223 200//223 216//223 217//223
f 207//224 206//224 222//224 223//224
f 218//225 217//225 232//225 233//225
f 223//226 222//226 237//226 238//226
f 46//227 227//227 242//227
f 217//228 216//228 231//228 232//228
f 216//229 215//229 230//229 231//229
f 222//230 221//230 236//230 237//230
f 227//231 226//231 241//231 242//231
f 215//232 214//232 229//232 230//232
f 221//233 220//233 235//233 236//233
f 220//234 219//234 234//234 235//234
f 226//235 225//235 240//235 241//235
f 214//236 213//236 228//236 229//236
f 219//237 218//237 233//237 234//237
f 225//238 224//238 239//238 240//238
f 224//239 223//239 238//239 239//239
f 213//240 212//240 228//240
f 234//241 233//241 6//241 7//241
f 240//242 239//242 12//242 13//242
f 228//243 212//243 1//243
f 233//244 232//244 5//244 6//244
f 239//245 238//245 11//245 12//245
f 238//246 237//246 10//246 11//246
f 232//247 231//247 4//247 5//247
f 237//248 236//248 9//248 10//248
f 46//249 242//249 15//249
f 242//250 241//250 14//250 15//250
f 231//251 230//251 3//251 4//251
f 230//252 229//252 2//252 3//252
f 236//253 235//253 8//253 9//253
f 241//254 240//254 13//254 14//254
f 229//255 228//255 1//255 2//255
f 235//256 234//256 7//256 8//256
