# Blender v2.77 (sub 0) OBJ File: 'sphere.blend'
# www.blender.org
mtllib sphere.mtl
o Sphere_Sphere.001
v -38.268345 92.387947 0.000000
v -70.710678 70.710678 0.000000
v -100.000000 -0.000004 0.000000
v -70.710678 -70.710678 0.000000
v -27.059811 92.387947 -27.059795
v -50.000004 70.710678 -49.999989
v -65.328148 38.268341 -65.328133
v -70.710678 -0.000004 -70.710663
v -65.328148 -38.268353 -65.328133
v -50.000004 -70.710678 -49.999989
v -27.059813 -92.387947 -27.059797
v -0.000015 92.387947 -38.268330
v -0.000015 70.710678 -70.710663
v -0.000015 38.268341 -92.387932
v -0.000015 -0.000004 -99.999977
v -0.000015 -38.268353 -92.387932
v -0.000015 -70.710678 -70.710663
v -0.000015 -92.387947 -38.268333
v -0.000026 100.000000 0.000011
v 27.059780 92.387947 -27.059795
v 49.999973 70.710678 -49.999989
v 65.328117 38.268341 -65.328133
v 70.710648 -0.000004 -70.710663
v 65.328117 -38.268353 -65.328133
v 49.999973 -70.710678 -49.999989
v 27.059782 -92.387947 -27.059797
v 38.268314 92.387947 -0.000000
v 70.710648 70.710678 -0.000000
v 92.387917 38.268341 -0.000000
v 99.999962 -0.000004 -0.000000
v 92.387917 -38.268353 -0.000000
v 70.710648 -70.710678 -0.000000
v 38.268318 -92.387947 -0.000000
v 27.059780 92.387947 27.059795
v 49.999973 70.710678 49.999989
v 65.328117 38.268341 65.328133
v 70.710648 -0.000004 70.710663
v 65.328117 -38.268353 65.328133
v 49.999973 -70.710678 49.999989
v 27.059782 -92.387947 27.059797
v -0.000015 92.387947 38.268330
v -0.000015 70.710678 70.710663
v -0.000015 38.268341 92.387932
v -0.000015 -0.000004 99.999977
v -0.000015 -38.268353 92.387932
v -0.000015 -70.710678 70.710663
v -0.000015 -92.387947 38.268333
v -27.059811 92.387947 27.059795
v -50.000004 70.710678 49.999989
v -65.328148 38.268341 65.328133
v -70.710678 -0.000004 70.710663
v -65.328148 -38.268353 65.328133
v -50.000004 -70.710678 49.999989
v -27.059813 -92.387947 27.059797
v -92.387947 38.268341 -0.000000
v -92.387947 -38.268353 -0.000000
v -38.268349 -92.387947 -0.000000
v -0.000015 -100.000000 -0.000000
vn -0.7862 -0.5253 -0.3256
vn -0.5414 0.8103 -0.2243
vn -0.5414 -0.8103 -0.2243
vn -0.7862 0.5253 -0.3256
vn -0.1945 -0.9776 -0.0805
vn -0.9087 0.1807 -0.3764
vn -0.9087 -0.1807 -0.3764
vn -0.1945 0.9776 -0.0805
vn -0.3256 -0.5253 -0.7862
vn -0.2243 0.8103 -0.5414
vn -0.2243 -0.8103 -0.5414
vn -0.3256 0.5253 -0.7862
vn -0.0805 -0.9776 -0.1945
vn -0.3764 0.1807 -0.9087
vn -0.3764 -0.1807 -0.9087
vn -0.0805 0.9776 -0.1945
vn 0.3764 -0.1807 -0.9087
vn 0.0805 0.9776 -0.1945
vn 0.3256 -0.5253 -0.7862
vn 0.2243 0.8103 -0.5414
vn 0.2243 -0.8103 -0.5414
vn 0.3256 0.5253 -0.7862
vn 0.0805 -0.9776 -0.1945
vn 0.3764 0.1807 -0.9087
vn 0.1945 -0.9776 -0.0805
vn 0.9087 0.1807 -0.3764
vn 0.9087 -0.1807 -0.3764
vn 0.1945 0.9776 -0.0805
vn 0.7862 -0.5253 -0.3256
vn 0.5414 0.8103 -0.2243
vn 0.5414 -0.8103 -0.2243
vn 0.7862 0.5253 -0.3256
vn 0.5414 -0.8103 0.2243
vn 0.7862 0.5253 0.3256
vn 0.1945 -0.9776 0.0805
vn 0.9087 0.1807 0.3764
vn 0.9087 -0.1807 0.3764
vn 0.1945 0.9776 0.0805
vn 0.7862 -0.5253 0.3256
vn 0.5414 0.8103 0.2243
vn 0.3256 -0.5253 0.7862
vn 0.2243 0.8103 0.5414
vn 0.2243 -0.8103 0.5414
vn 0.3256 0.5253 0.7862
vn 0.0805 -0.9776 0.1945
vn 0.3764 0.1807 0.9087
vn 0.3764 -0.1807 0.9087
vn 0.0805 0.9776 0.1945
vn -0.3764 -0.1807 0.9087
vn -0.0805 0.9776 0.1945
vn -0.3256 -0.5253 0.7862
vn -0.2243 0.8103 0.5414
vn -0.2243 -0.8103 0.5414
vn -0.3256 0.5253 0.7862
vn -0.0805 -0.9776 0.1945
vn -0.3764 0.1807 0.9087
vn -0.1945 -0.9776 0.0805
vn -0.9087 0.1807 0.3764
vn -0.9087 -0.1807 0.3764
vn -0.1945 0.9776 0.0805
vn -0.7862 -0.5253 0.3256
vn -0.5414 0.8103 0.2243
vn -0.5414 -0.8103 0.2243
vn -0.7862 0.5253 0.3256
usemtl None
s off
f 4//1 56//1 9//1 10//1
f 2//2 1//2 5//2 6//2
f 57//3 4//3 10//3 11//3
f 55//4 2//4 6//4 7//4
f 58//5 57//5 11//5
f 3//6 55//6 7//6 8//6
f 56//7 3//7 8//7 9//7
f 1//8 19//8 5//8
f 10//9 9//9 16//9 17//9
f 6//10 5//10 12//10 13//10
f 11//11 10//11 17//11 18//11
f 7//12 6//12 13//12 14//12
f 58//13 11//13 18//13
f 8//14 7//14 14//14 15//14
f 9//15 8//15 15//15 16//15
f 5//16 19//16 12//16
f 16//17 15//17 23//17 24//17
f 12//18 19//18 20//18
f 17//19 16//19 24//19 25//19
f 13//20 12//20 20//20 21//20
f 18//21 17//21 25//21 26//21
f 14//22 13//22 21//22 22//22
f 58//23 18//23 26//23
f 15//24 14//24 22//24 23//24
f 58//25 26//25 33//25
f 23//26 22//26 29//26 30//26
f 24//27 23//27 30//27 31//27
f 20//28 19//28 27//28
f 25//29 24//29 31//29 32//29
f 21//30 20//30 27//30 28//30
f 26//31 25//31 32//31 33//31
f 22//32 21//32 28//32 29//32
f 33//33 32//33 39//33 40//33
f 29//34 28//34 35//34 36//34
f 58//35 33//35 40//35
f 30//36 29//36 36//36 37//36
f 31//37 30//37 37//37 38//37
f 27//38 19//38 34//38
f 32//39 31//39 38//39 39//39
f 28//40 27//40 34//40 35//40
f 39//41 38//41 45//41 46//41
f 35//42 34//42 41//42 42//42
f 40//43 39//43 46//43 47//43
f 36//44 35//44 42//44 43//44
f 58//45 40//45 47//45
f 37//46 36//46 43//46 44//46
f 38//47 37//47 44//47 45//47
f 34//48 19//48 41//48
f 45//49 44//49 51//49 52//49
f 41//50 19//50 48//50
f 46//51 45//51 52//51 53//51
f 42//52 41//52 48//52 49//52
f 47//53 46//53 53//53 54//53
f 43//54 42//54 49//54 50//54
f 58//55 47//55 54//55
f 44//56 43//56 50//56 51//56
f 58//57 54//57 57//57
f 51//58 50//58 55//58 3//58
f 52//59 51//59 3//59 56//59
f 48//60 19//60 1//60
f 53//61 52//61 56//61 4//61
f 49//62 48//62 1//62 2//62
f 54//63 53//63 4//63 57//63
f 50//64 49//64 2//64 55//64
